<svg width="49" height="49" viewBox="0 0 49 49" fill="none" xmlns="http://www.w3.org/2000/svg">

<path fill-rule="evenodd" clip-rule="evenodd" d="M28.9018 38.3649C28.5823 37.85 27.8523 37.5859 27.2785 37.7771C27.2785 37.7771 26.3631 38.0836 24.8806 38.493C23.2938 38.9251 21.7759 41.3602 20.8935 41.4669C19.725 41.6091 15.9002 41.188 15.9002 41.188C15.2989 41.1218 14.528 41.4754 14.1865 41.9793C14.1865 41.9793 13.3157 43.2492 12.1454 44.2654C10.9758 45.2804 10.7422 45.8075 10.7422 45.8075C10.497 46.3641 10.2873 46.942 10.2775 47.0953C10.2677 47.2461 10.73 48.0006 11.3331 48.0006H12.0302C12.6339 48.0006 13.1187 47.5047 13.1065 46.8955C13.1065 46.8955 13.0943 46.2047 13.1309 45.9142C13.1669 45.6408 13.1669 45.6408 13.1669 45.6408C13.2998 45.27 13.7035 44.567 14.0682 44.0822L14.7823 43.1377C15.108 42.6265 15.4141 42.2103 15.4635 42.214C15.5123 42.2208 16.0441 42.271 16.6454 42.336C16.6454 42.336 19.0311 42.5836 20.2574 42.5762C20.5575 42.575 20.8093 42.5622 21.0216 42.537C21.1515 42.5217 21.1515 42.5217 21.1515 42.5217C21.3015 42.4819 21.2606 42.9238 21.0618 43.4944C21.0618 43.4944 20.3995 45.4147 19.8275 46.6013C19.7531 46.7533 19.7433 46.8979 19.7433 46.8979C19.7037 47.5047 20.1666 48.0006 20.7709 48.0006H30.4935C31.0972 48.0006 31.5735 47.9325 31.5528 47.8498C31.5528 47.8498 31.5528 47.8498 31.5473 47.7732C31.4503 46.2495 31.6784 44.141 31.6784 44.141C31.7449 43.5367 31.4668 42.6712 31.0631 42.2208L28.9018 38.3649Z" fill="#013852"/>
<path fill-rule="evenodd" clip-rule="evenodd" d="M47.9604 1.92749V46.9251C47.9604 47.5138 47.4741 47.9983 46.8698 47.9983H42.4474C41.8516 47.9983 41.5246 47.7334 41.7214 47.415C41.7214 47.415 41.7214 47.415 41.662 46.9906C41.2545 44.1465 39.5814 40.0138 39.0654 39.3918C38.9922 39.2989 38.9922 39.2989 38.9922 39.2989C38.9346 39.1638 38.5356 40.2686 38.4338 40.7263C38.3388 41.1846 38.2298 41.9019 38.2443 41.9299C38.2594 41.9644 38.3751 42.4561 38.5059 43.0364L38.8341 46.9251C38.8632 47.5192 38.6724 47.9983 38.412 47.9983C38.1492 47.9983 37.9094 47.5138 37.8792 46.9251C37.8792 46.9251 37.6981 42.8864 37.3996 42.2983C37.2845 42.062 37.2845 42.062 37.2845 42.062C37.3057 41.6775 37.4946 40.915 37.6914 40.3555C37.6914 40.3555 38.7106 37.5584 39.2477 34.087C39.5099 32.384 39.6534 30.5192 39.5099 28.7382C39.4433 27.9454 41.2182 27.5995 41.3786 27.5233C41.6838 27.3733 42.2149 26.687 42.7248 25.8501C43.2565 24.9793 43.7706 23.9394 43.9971 23.1906C44.0419 23.0459 43.5677 23.1263 43.6053 22.9775C43.6489 22.8251 43.6271 22.2239 43.6192 22.0442C43.6271 21.5263 43.3134 21.2751 43.0591 21.0965C42.8986 20.9882 42.7599 20.9019 42.7308 20.7942C42.6588 20.5096 42.0623 19.5156 41.7359 19.3632C41.4228 19.2156 41.4228 18.3942 41.5246 18.1799C41.6257 17.9555 42.4275 17.4376 42.4541 16.9418V16.9198C42.4626 16.712 42.4105 16.5834 42.3306 16.4769C42.0623 16.1555 41.4083 16.0102 40.6435 14.2888C40.3098 13.5305 39.9156 12.1513 39.6988 12.0138C39.0073 11.6079 37.7629 11.3305 35.423 10.9715C33.5664 10.687 32.7961 12.809 31.1539 14.7043C30.8178 15.0977 29.3917 17.4376 29.3917 17.4376C29.0871 17.934 28.4107 18.6007 27.9009 18.9079C27.9009 18.9079 23.9448 21.2507 21.8496 22.8251C19.7562 24.3918 18.2786 27.487 15.4567 28.2507C14.1336 28.6031 11.4649 29.6084 10.6123 30.4168C8.94704 31.9989 8.32211 32.7561 7.89278 34.115C7.47131 35.4644 7.07165 36.6293 6.77916 37.44C6.5109 38.2037 6.34377 38.6549 6.34377 38.6549C6.13062 39.2025 5.73338 40.0823 5.45664 40.6055C5.45664 40.6055 3.96456 43.4073 3.44741 44.4942C3.12163 45.1954 3.19369 46.9251 3.19369 46.9251C3.2167 47.5138 2.74255 47.9983 2.14002 47.9983H1.09181C0.495948 47.9983 0 47.5138 0 46.9251V22.0251C0 10.3358 9.64646 0.855469 21.5371 0.855469H46.8698C47.4741 0.855469 47.9604 1.33404 47.9604 1.92749Z" fill="#013852"/>
</svg>
